<svg width="128" height="128" viewBox="0 0 128 128" xmlns="http://www.w3.org/2000/svg">
  <defs>
    <linearGradient id="grad1" x1="0%" y1="0%" x2="100%" y2="100%">
      <stop offset="0%" style="stop-color:#667eea;stop-opacity:1" />
      <stop offset="100%" style="stop-color:#764ba2;stop-opacity:1" />
    </linearGradient>
    <filter id="shadow" x="-20%" y="-20%" width="140%" height="140%">
      <feDropShadow dx="2" dy="4" stdDeviation="4" flood-color="#000" flood-opacity="0.2"/>
    </filter>
  </defs>
  
  <!-- 背景圆形 -->
  <circle cx="64" cy="64" r="56" fill="url(#grad1)" filter="url(#shadow)"/>
  
  <!-- 大脑主体 -->
  <path d="M40 48c0-12 8-20 20-20s20 8 20 20c4 0 8 4 8 8s-4 8-8 8c0 8-4 16-12 20-4 2.4-8 4-12 4s-8-1.6-12-4c-8-4-12-12-12-20-4 0-8-4-8-8s4-8 8-8c1.6-2.4 4-5.6 8-8z" 
        fill="#fff" opacity="0.95"/>
  
  <!-- 大脑纹理 -->
  <path d="M45 52c2-1 4-1 6 0s4 3 6 2c2-1 4 0 6 1" 
        stroke="#667eea" stroke-width="2" fill="none" opacity="0.6"/>
  <path d="M48 58c3-1 6 0 9 1s6-1 9 0" 
        stroke="#667eea" stroke-width="2" fill="none" opacity="0.6"/>
  <path d="M50 64c2-1 4 0 6 1s4-1 6 0s4 1 6 0" 
        stroke="#667eea" stroke-width="2" fill="none" opacity="0.6"/>
  
  <!-- 眼睛 -->
  <circle cx="52" cy="56" r="4" fill="#667eea"/>
  <circle cx="76" cy="56" r="4" fill="#667eea"/>
  <circle cx="52" cy="56" r="2" fill="#fff"/>
  <circle cx="76" cy="56" r="2" fill="#fff"/>
  
  <!-- 截屏框架效果 -->
  <rect x="20" y="20" width="88" height="88" fill="none" stroke="#fff" stroke-width="3" 
        stroke-dasharray="8,4" opacity="0.4" rx="8"/>
  
  <!-- 闪光效果 -->
  <circle cx="32" cy="32" r="3" fill="#fff" opacity="0.8"/>
  <circle cx="96" cy="40" r="2" fill="#fff" opacity="0.6"/>
  <circle cx="88" cy="96" r="2.5" fill="#fff" opacity="0.7"/>
</svg>